<?xml version="1.0" encoding="UTF-8"?>
<!-- Created with Inkscape (http://www.inkscape.org/) -->
<svg width="144.83mm" height="153.21mm" version="1.1" viewBox="0 0 144.83 153.21" xmlns="http://www.w3.org/2000/svg" xmlns:cc="http://creativecommons.org/ns#" xmlns:dc="http://purl.org/dc/elements/1.1/" xmlns:rdf="http://www.w3.org/1999/02/22-rdf-syntax-ns#">
 <metadata>
  <rdf:RDF>
   <cc:Work rdf:about="">
    <dc:format>image/svg+xml</dc:format>
    <dc:type rdf:resource="http://purl.org/dc/dcmitype/StillImage"/>
    <dc:title/>
   </cc:Work>
  </rdf:RDF>
 </metadata>
 <g transform="translate(-30.468 -64.966)">
  <path transform="matrix(.26456 .003137 -.003137 .26456 -8.2108 31.636)" d="m271.22 609.45-23.494 0.16438-16.949 92.156 30.386-0.6468z" fill="#ffebeb" stroke="#000" stroke-width="1.1339"/>
 </g>
 <g transform="translate(-30.468 -64.966)">
  <path id="rook-leg-right" transform="rotate(.67933 -2672.3 -676.68)" d="m86.601 161.86-6.2565 0.42064 3.6134 22.73 7.6857-1.507z" fill="#ffebeb" stroke="#000" stroke-width=".3"/>
 </g>
 <g transform="translate(-30.468 -64.966)">
  <g id="rook-mic" stroke="#000">
   <path transform="translate(6.9425 47.903)" d="m31.154 98.705c0 0.34712-0.08678 4.2523-0.08678 4.2523l-4.9465-1.5621 0.26034-4.6862z" fill="#ffebeb" stroke-width=".26458px"/>
   <path transform="scale(.26458)" d="m138.97 546.76-1.0215 25.982 81.251 32.238 2.3242-29.422z" fill="#1e1e1e" stroke-width="1.1339"/>
   <path d="m34.981 141.11 0.44238 9.8205-2.1722 0.24299-1.6641-9.7041z" fill="#646464" stroke-width=".26458px"/>
   <path d="m30.626 141.57 5.2246-0.5413-1.4888-3.5105-3.1538 0.40875z" fill="#1e1e1e" stroke-width=".26458px"/>
  </g>
 </g>
 <g transform="translate(-30.468 -64.966)">
  <g transform="translate(6.9425 47.903)">
   <path d="m83.657 99.659 4.8598-2.4299 0.78103 4.5994-4.5994 1.4753z" fill="#ffebeb" stroke="#000" stroke-width=".26458px"/>
   <g transform="rotate(.67933 1364.4 -1286.2)" stroke-width=".3">
    <g stroke="#000">
     <path d="m64.848 119.09-0.59252-2.2888 4.3526-1.6836 11.05-0.0173 3.0721 1.6256-0.43308 1.8988-3.8676-1.3509-8.3153-0.18914" fill="#1e1e1e" stroke-width=".3"/>
     <path transform="matrix(.26456 -.003137 .003137 .26456 7.8351 -31.731)" d="m205.4 599.41 6.0159 26.971-3.6621 57.941 82.766 6.0332-7.7422-67.26 2.1875-21.895 71.102-28.771-2.7461-23.771-78.646 22.904-14.557-5.2773-31.418-1.0879-20.627 6.9941" fill="#1e1e1e" stroke-width="1.1339"/>
     <path transform="scale(.26458)" d="m245.47 561.88-27.201 60.445 26.418-0.52539 26.441-0.52735 33.104 0.46094 23.646-1.5898 27.75-0.55274-27.326-52.66z" fill="#3e0a40" stroke-width="1.1339"/>
    </g>
    <path transform="scale(.26458)" d="m320.54 438.66c-0.19169-0.49954-0.11354-1.3473 0.17366-1.884 0.2872-0.53664 0.45685-3.0771 0.377-5.6455l-0.1452-4.6698-1.6415-0.15828c-0.90282-0.0871-1.6425-0.20069-1.6437-0.25253-0.012-0.51452-7.0176-31.779-7.1508-31.912-0.0983-0.0983-4.4413-1.3174-9.651-2.7092l-9.4723-2.5304-12.989 2.4827c-7.1438 1.3655-13.233 2.5763-13.531 2.6908-0.29822 0.11443-3.6555 5.6333-7.4606 12.264l-6.9184 12.056v3.4618c0 3.3435-0.0388 3.4514-1.1364 3.1573-0.62503-0.1675-2.8967-0.30765-5.0481-0.31145l-3.9117-7e-3 -8.9408-17.93 9.188-44.358 36.366-8.4117 19.698 5.8435c10.834 3.2139 19.96 6.1094 20.281 6.4343 0.32062 0.32497 3.2122 9.4549 6.4257 20.289l5.8428 19.698-4.1813 16.655c-2.6021 10.365-4.313 16.312-4.5299 15.747z" fill="none" stroke-width="1.1339"/>
    <path d="m66.335 118.41-5.2917-10.772 2.4568-11.906 9.8274-2.2679 10.772 3.2128 3.2128 10.772-2.4568 9.8274-2.8348-12.851-4.9137-1.3229-6.9926 1.3229-3.5908 6.2366z" fill="#240000" stroke="#000" stroke-width=".3"/>
    <path transform="scale(.26458)" d="m291.43 389.66-26.428 5-13.572 23.572-0.33398 13.279 13.191 11.721h34.287l18.867-13.82-7.4394-34.752z" fill="#ffebeb" stroke="#000" stroke-width="1.1339"/>
    <g fill="none" stroke="#000" stroke-width=".3">
     <path d="m73.424 105.15-3.1314 4.7056"/>
     <path d="m68.665 106.27 5.5097 3.2186"/>
     <path d="m82.033 104.63-3.8068 4.3625"/>
     <path d="m76.482 104.9 5.7911 4.2465"/>
     <path d="m70.135 114.45 3.1124-1.6237 1.0394 2.0789 2.5513-2.5513 1.2284 2.0789 2.3624-2.1734"/>
    </g>
   </g>
  </g>
 </g>
 <g transform="translate(-30.468 -64.966)">
  <path id="devi-leg-right" transform="rotate(180 132.19 92.154)" d="m135.14 90.034 2.0164 29.077 7.8298-1.336-3.6698-28.575z" fill="#ffebeb" stroke="#000" stroke-width=".31341"/>
 </g>
 <g transform="translate(-30.468 -64.966)">
  <path transform="rotate(180 132.19 92.154)" d="m118.32 118.01 7.6202 1.1516 2.0372-29.262-6.3185-0.15404z" fill="#ffebeb" stroke="#000" stroke-width=".31175"/>
 </g>
 <g transform="translate(-30.468 -64.966)">
  <g id="devi-mic" transform="rotate(-6.1885 142.09 135.53)" stroke="#000">
   <path transform="translate(-1.5621 .75561)" d="m168.1 140.79-0.60747 4.3391 3.9919 1.5621 0.95459-4.4258z" fill="#ffebeb" stroke-width=".26458px"/>
   <path transform="matrix(.26458 0 0 .26458 -3.2e-6 1.93e-6)" d="m529.6 487.89 5.8789 37.436 97.653 34.248 3.7207-26.184z" fill="#1e1e1e" stroke-width="1.1339"/>
   <path d="m169.38 150.26 0.23204-9.8277 2.1838-0.0935 0.99497 9.7954z" fill="#646464" stroke-width=".26458px"/>
   <path d="m173.76 150.1-5.2494 0.18178 1.2446 3.6043 3.1744-0.19155z" fill="#1e1e1e" stroke-width=".26458px"/>
  </g>
 </g>
 <g transform="translate(-30.468 -64.966)">
  <g transform="translate(-1.5621 .75561)" stroke="#000">
   <path d="m100.59 143.05-3.4854 1.5639 0.65394 4.05 3.8659-1.4727z" fill="#ffebeb" stroke-width=".26458px"/>
   <g transform="rotate(180 132.97 91.776)" stroke-width=".3">
    <g>
     <path d="m128 36.863-0.37798 9.4494 6.8981 0.28348-0.28348-9.5439z" fill="#ffebeb" stroke-width=".3"/>
     <path transform="matrix(-.26458 0 0 -.26458 264.37 184.31)" d="m543.11 494.22-4.4306-24.477 32.902-140.72-21.328 11.689-15.27-10.031-26.16 11.174-24.98-8.2754-22.881 11.486-26.326-8.9356 30.371 137.07-3.5723 28.533-92.984 40.736 3.3418 23.561 92.695-31.443 18.01 8.5605s20.187-20.397 21.869-18.484c1.6823 1.9123 19.768 15.934 19.768 15.934l24.793-9.2031" fill="#1e1e1e" stroke-width="1.1339"/>
     <path d="m131.65 41.807 4.8507-3.2808 1.9477-7.2004 0.34857-4.7028-4.9884-6.3615-9.5816 2.5754-1.0372 4.2394 0.3121 4.3573 2.9155 8.1426z" fill="#ffebeb" stroke-width=".3"/>
    </g>
    <g fill="none" stroke-width=".3">
     <path d="m129.19 27.589-3.0136 4.3686"/>
     <path d="m125.3 27.59 4.0233 4.1463"/>
     <path d="m135.98 27.64c-0.54823 0.82891-3.2967 4.0577-3.2967 4.0577"/>
     <path d="m132.32 27.666 3.9159 3.8682"/>
     <path d="m126.22 37.198c0.15811-0.41295 1.705-2.074 1.705-2.074l1.8338 2.6946 2.2242-2.2462 2.0638 2.0385 1.6968-2.5719"/>
     <path d="m124.95 28.629 2.3968-0.28614 2.9315 0.35032-0.25499 2.4608-1.8606 0.90872-3.0087-0.51506z"/>
     <path d="m132.24 31.163-0.45639-2.3157 2.5472-0.83185 2.4988 0.11446 0.25498 2.5181-2.949 1.1307z"/>
     <path d="m130.12 29.68 0.90147-0.40467 0.93754 0.28327"/>
     <path d="m125 28.587-1.6227-0.4856"/>
     <path d="m136.86 28.142 1.9472-1.0117"/>
    </g>
    <path d="m124.31 19.014-6.7228 5.4095-3.5912 13.685 0.3521 6.421 4.0888 0.40178s4.6335-0.86829 4.6335-1.5413c0-0.67299 1.041-5.0893 1.041-5.0893s-0.35622-11.723-0.22005-12.261c0.13625-0.53838 3.8707-2.5813 3.8707-2.5813l5.757-0.16035 4.4301 2.7443 0.52606 11.916 0.14043 5.2321 5.1163 1.7967 4.2464-1.9232 0.35446-6.2155-4.891-13.704-6.1769-4.6692z" fill="#310400" stroke-width=".3"/>
   </g>
  </g>
 </g>
</svg>
