<?xml version="1.0" encoding="UTF-8" standalone="no"?>
<!-- Created with Inkscape (http://www.inkscape.org/) -->

<svg
   xmlns:dc="http://purl.org/dc/elements/1.1/"
   xmlns:cc="http://creativecommons.org/ns#"
   xmlns:rdf="http://www.w3.org/1999/02/22-rdf-syntax-ns#"
   xmlns:svg="http://www.w3.org/2000/svg"
   xmlns="http://www.w3.org/2000/svg"
   xmlns:sodipodi="http://sodipodi.sourceforge.net/DTD/sodipodi-0.dtd"
   xmlns:inkscape="http://www.inkscape.org/namespaces/inkscape"
   width="144.82727mm"
   height="153.20836mm"
   viewBox="0 0 144.82727 153.20836"
   version="1.1"
   id="svg8"
   sodipodi:docname="black-dresses.svg"
   inkscape:version="0.92.4 5da689c313, 2019-01-14">
  <defs
     id="defs2" />
  <sodipodi:namedview
     id="base"
     pagecolor="#ffffff"
     bordercolor="#666666"
     borderopacity="1.0"
     inkscape:pageopacity="0.0"
     inkscape:pageshadow="2"
     inkscape:zoom="2.1558642"
     inkscape:cx="180.35907"
     inkscape:cy="254.82194"
     inkscape:document-units="mm"
     inkscape:current-layer="layer5"
     showgrid="false"
     inkscape:snap-global="true"
     showguides="false"
     inkscape:window-width="3436"
     inkscape:window-height="1397"
     inkscape:window-x="0"
     inkscape:window-y="41"
     inkscape:window-maximized="0" />
  <metadata
     id="metadata5">
    <rdf:RDF>
      <cc:Work
         rdf:about="">
        <dc:format>image/svg+xml</dc:format>
        <dc:type
           rdf:resource="http://purl.org/dc/dcmitype/StillImage" />
        <dc:title></dc:title>
      </cc:Work>
    </rdf:RDF>
  </metadata>
  <g
     inkscape:groupmode="layer"
     id="layer2"
     inkscape:label="Rook Leg Left"
     style="display:inline"
     transform="translate(-30.467774,-64.966257)">
    <path
       style="display:inline;fill:#ffebeb;fill-opacity:1;stroke:#000000;stroke-width:1.13385832;stroke-linecap:butt;stroke-linejoin:miter;stroke-miterlimit:4;stroke-dasharray:none;stroke-opacity:1"
       d="m 271.21667,609.44722 -23.49358,0.16438 -16.94909,92.15629 30.38616,-0.6468 z"
       id="path3765"
       inkscape:connector-curvature="0"
       transform="matrix(0.26456474,0.00313698,-0.00313698,0.26456474,-8.2107535,31.63591)"
       sodipodi:nodetypes="ccccc"
       inkscape:transform-center-x="39.454651"
       inkscape:transform-center-y="58.387248" />
  </g>
  <g
     inkscape:groupmode="layer"
     id="layer3"
     inkscape:label="Rook Leg Right"
     style="display:inline"
     transform="translate(-30.467774,-64.966257)">
    <path
       transform="rotate(0.67933259,-2672.2874,-676.67882)"
       style="display:inline;fill:#ffebeb;fill-opacity:1;stroke:#000000;stroke-width:0.30000001;stroke-linecap:butt;stroke-linejoin:miter;stroke-miterlimit:4;stroke-dasharray:none;stroke-opacity:1"
       d="m 86.601245,161.86474 -6.256464,0.42064 3.613447,22.73009 7.685727,-1.50697 z"
       id="rook-leg-right"
       inkscape:connector-curvature="0"
       sodipodi:nodetypes="ccccc"
       inkscape:label="#path3770"
       inkscape:transform-center-x="19.864128"
       inkscape:transform-center-y="58.603362" />
  </g>
  <g
     inkscape:groupmode="layer"
     id="layer1"
     inkscape:label="Rook Mic"
     style="display:inline"
     transform="translate(-30.467774,-64.966257)">
    <g
       style="display:inline"
       id="rook-mic"
       inkscape:transform-center-x="50.972955"
       inkscape:transform-center-y="1.3189743"
       inkscape:label="#g991">
      <path
         style="display:inline;fill:#ffebeb;fill-opacity:1;stroke:#000000;stroke-width:0.26458332px;stroke-linecap:butt;stroke-linejoin:miter;stroke-opacity:1"
         d="m 31.154481,98.704759 c 0,0.347125 -0.08678,4.252281 -0.08678,4.252281 l -4.946533,-1.56206 0.260344,-4.68619 z"
         id="path912"
         inkscape:connector-curvature="0"
         transform="translate(6.9425029,47.90327)" />
      <path
         transform="scale(0.26458333)"
         sodipodi:nodetypes="ccccc"
         inkscape:connector-curvature="0"
         id="path3717"
         d="m 138.97266,546.75781 -1.02149,25.98242 81.25051,32.23792 2.32422,-29.42187 z"
         style="display:inline;fill:#1e1e1e;fill-opacity:1;stroke:#000000;stroke-width:1.13385828;stroke-linecap:butt;stroke-linejoin:miter;stroke-miterlimit:4;stroke-dasharray:none;stroke-opacity:1" />
      <path
         sodipodi:nodetypes="ccccc"
         inkscape:connector-curvature="0"
         id="path955"
         d="m 34.981428,141.10723 0.442379,9.82049 -2.172226,0.24299 -1.66412,-9.70411 z"
         style="fill:#646464;fill-opacity:1;stroke:#000000;stroke-width:0.26458332px;stroke-linecap:butt;stroke-linejoin:miter;stroke-opacity:1" />
      <path
         sodipodi:nodetypes="ccccc"
         inkscape:connector-curvature="0"
         id="path957"
         d="m 30.625601,141.56576 5.224597,-0.5413 -1.488831,-3.51051 -3.153807,0.40875 z"
         style="fill:#1e1e1e;fill-opacity:1;stroke:#000000;stroke-width:0.26458332px;stroke-linecap:butt;stroke-linejoin:miter;stroke-opacity:1" />
    </g>
  </g>
  <g
     inkscape:groupmode="layer"
     id="layer4"
     inkscape:label="Rook"
     style="display:inline"
     transform="translate(-30.467774,-64.966257)">
    <g
       id="g932"
       transform="translate(6.9425029,47.90327)"
       inkscape:transform-center-x="23.680363"
       inkscape:transform-center-y="14.047857">
      <path
         inkscape:connector-curvature="0"
         id="path914"
         d="m 83.657158,99.659351 4.859753,-2.429875 0.781032,4.599404 -4.599408,1.47529 z"
         style="fill:#ffebeb;fill-opacity:1;stroke:#000000;stroke-width:0.26458332px;stroke-linecap:butt;stroke-linejoin:miter;stroke-opacity:1" />
      <g
         style="stroke-width:0.30000001;stroke-miterlimit:4;stroke-dasharray:none"
         transform="rotate(0.67933256,1364.4171,-1286.1634)"
         id="g52">
        <path
           style="display:inline;fill:#1e1e1e;fill-opacity:1;stroke:#000000;stroke-width:0.30000001;stroke-linecap:butt;stroke-linejoin:miter;stroke-miterlimit:4;stroke-dasharray:none;stroke-opacity:1"
           d="m 64.848475,119.08863 -0.592523,-2.28878 4.352631,-1.68359 11.049898,-0.0173 3.072053,1.62556 -0.433085,1.8988 -3.867613,-1.35089 -8.315254,-0.18914"
           id="path4610"
           inkscape:connector-curvature="0"
           sodipodi:nodetypes="cccccccc" />
        <path
           style="display:inline;fill:#1e1e1e;fill-opacity:1;stroke:#000000;stroke-width:1.1338582;stroke-linecap:butt;stroke-linejoin:miter;stroke-miterlimit:4;stroke-dasharray:none;stroke-opacity:1"
           d="m 205.40211,599.41194 6.01586,26.97087 -3.66211,57.94141 82.76562,6.0332 -7.74218,-67.25976 2.1875,-21.89454 71.10156,-28.77148 -2.74609,-23.77148 -78.64649,22.90429 -14.55664,-5.27734 -31.41797,-1.08789 -20.62695,6.99414"
           id="path983"
           transform="matrix(0.26456474,-0.00313698,0.00313698,0.26456474,7.8350865,-31.731038)"
           inkscape:connector-curvature="0"
           sodipodi:nodetypes="cccccccccccc" />
        <path
           style="display:inline;fill:#3e0a40;fill-opacity:1;stroke:#000000;stroke-width:1.13385832;stroke-linecap:butt;stroke-linejoin:miter;stroke-miterlimit:4;stroke-dasharray:none;stroke-opacity:1"
           d="m 245.4668,561.88477 -27.20118,60.44531 26.41797,-0.52539 26.44141,-0.52735 33.10352,0.46094 23.64648,-1.58984 27.75,-0.55274 -27.32617,-52.66015 z"
           id="path3721"
           inkscape:connector-curvature="0"
           transform="scale(0.26458333)" />
        <path
           style="display:inline;fill:none;fill-opacity:1;stroke-width:1.13385832;stroke-miterlimit:4;stroke-dasharray:none"
           d="m 320.53948,438.66368 c -0.19169,-0.49954 -0.11354,-1.34732 0.17366,-1.88397 0.2872,-0.53664 0.45685,-3.07713 0.377,-5.64552 l -0.1452,-4.66979 -1.6415,-0.15828 c -0.90282,-0.0871 -1.64248,-0.20069 -1.64368,-0.25253 -0.012,-0.51452 -7.01761,-31.77862 -7.1508,-31.91182 -0.0983,-0.0983 -4.44129,-1.31745 -9.65105,-2.70918 l -9.47228,-2.53043 -12.98877,2.48269 c -7.14382,1.36548 -13.23275,2.57632 -13.53097,2.69076 -0.29822,0.11443 -3.65551,5.63331 -7.46065,12.26417 l -6.91844,12.05611 v 3.46182 c 0,3.34354 -0.0388,3.4514 -1.13642,3.15726 -0.62503,-0.1675 -2.89668,-0.30765 -5.0481,-0.31145 l -3.91168,-0.007 -4.47038,-8.96511 -4.47038,-8.9651 4.59399,-22.17896 4.59398,-22.17896 18.18275,-4.20586 18.18275,-4.20587 19.69797,5.84347 c 10.83389,3.21391 19.9603,6.10935 20.28091,6.43431 0.32062,0.32497 3.21219,9.45493 6.42572,20.28882 l 5.84277,19.69797 -4.18134,16.6553 c -2.6021,10.3648 -4.31297,16.31226 -4.52986,15.74704 z"
           id="path3754"
           inkscape:connector-curvature="0"
           transform="scale(0.26458333)" />
        <path
           sodipodi:nodetypes="cccccccccccc"
           inkscape:connector-curvature="0"
           d="m 66.334822,118.40625 -5.291667,-10.77232 2.456844,-11.906252 9.827382,-2.267858 10.77232,3.212798 3.212798,10.772322 -2.456844,9.82738 -2.834823,-12.85119 -4.91369,-1.32292 -6.992559,1.32292 -3.590775,6.2366 z"
           style="display:inline;fill:#240000;fill-opacity:1;stroke:#000000;stroke-width:0.30000001;stroke-linecap:butt;stroke-linejoin:miter;stroke-miterlimit:4;stroke-dasharray:none;stroke-opacity:1"
           id="path4601" />
        <path
           style="display:inline;fill:#ffebeb;fill-opacity:1;stroke:#000000;stroke-width:1.13385832;stroke-linecap:butt;stroke-linejoin:miter;stroke-miterlimit:4;stroke-dasharray:none;stroke-opacity:1"
           d="m 291.42773,389.66211 -26.42773,5 -13.57227,23.57227 -0.33398,13.27929 13.19141,11.72071 h 34.28711 L 317.43945,429.41406 310,394.66211 Z"
           id="path3737"
           inkscape:connector-curvature="0"
           transform="scale(0.26458333)" />
        <path
           style="fill:none;stroke:#000000;stroke-width:0.30000001;stroke-linecap:butt;stroke-linejoin:miter;stroke-miterlimit:4;stroke-dasharray:none;stroke-opacity:1"
           d="m 73.423593,105.15442 -3.131414,4.70556"
           id="path4646"
           inkscape:connector-curvature="0"
           sodipodi:nodetypes="cc" />
        <path
           style="fill:none;stroke:#000000;stroke-width:0.30000001;stroke-linecap:butt;stroke-linejoin:miter;stroke-miterlimit:4;stroke-dasharray:none;stroke-opacity:1"
           d="m 68.664663,106.26942 5.509732,3.21858"
           id="path4648"
           inkscape:connector-curvature="0" />
        <path
           style="fill:none;stroke:#000000;stroke-width:0.30000001;stroke-linecap:butt;stroke-linejoin:miter;stroke-miterlimit:4;stroke-dasharray:none;stroke-opacity:1"
           d="m 82.032592,104.62894 -3.80683,4.36249"
           id="path4650"
           inkscape:connector-curvature="0" />
        <path
           style="fill:none;stroke:#000000;stroke-width:0.30000001;stroke-linecap:butt;stroke-linejoin:miter;stroke-miterlimit:4;stroke-dasharray:none;stroke-opacity:1"
           d="m 76.482398,104.89657 5.79112,4.24646"
           id="path4652"
           inkscape:connector-curvature="0" />
        <path
           style="fill:none;stroke:#000000;stroke-width:0.30000001;stroke-linecap:butt;stroke-linejoin:miter;stroke-miterlimit:4;stroke-dasharray:none;stroke-opacity:1"
           d="m 70.134638,114.44809 3.1124,-1.6237 1.039434,2.07887 2.55134,-2.55134 1.22842,2.07887 2.362354,-2.17337"
           id="path4654"
           inkscape:connector-curvature="0" />
      </g>
    </g>
  </g>
  <g
     inkscape:groupmode="layer"
     id="layer8"
     inkscape:label="Devi Leg Right"
     style="display:inline"
     transform="translate(-30.467774,-64.966257)">
    <path
       transform="rotate(180,132.18642,92.154204)"
       style="display:inline;fill:#ffebeb;fill-opacity:1;stroke:#000000;stroke-width:0.31341392;stroke-linecap:butt;stroke-linejoin:miter;stroke-miterlimit:4;stroke-dasharray:none;stroke-opacity:1"
       d="m 135.13603,90.034308 2.01643,29.077152 7.82984,-1.336 -3.6698,-28.575272 z"
       id="devi-leg-right"
       inkscape:connector-curvature="0"
       sodipodi:nodetypes="ccccc"
       inkscape:label="#path868"
       inkscape:transform-center-x="-28.72189"
       inkscape:transform-center-y="-67.318984" />
  </g>
  <g
     inkscape:groupmode="layer"
     id="layer7"
     inkscape:label="Devi Leg Left"
     style="display:inline"
     transform="translate(-30.467774,-64.966257)">
    <path
       transform="rotate(180,132.18642,92.154205)"
       style="display:inline;fill:#ffebeb;fill-opacity:1;stroke:#000000;stroke-width:0.31175292;stroke-linecap:butt;stroke-linejoin:miter;stroke-miterlimit:4;stroke-dasharray:none;stroke-opacity:1"
       d="m 118.31568,118.01117 7.62025,1.15161 2.03722,-29.26186 -6.31846,-0.15404 z"
       id="path866"
       inkscape:connector-curvature="0"
       sodipodi:nodetypes="ccccc"
       inkscape:transform-center-x="-45.636641"
       inkscape:transform-center-y="-67.617988" />
  </g>
  <g
     inkscape:groupmode="layer"
     id="layer6"
     inkscape:label="Devi Mic"
     style="display:inline"
     transform="translate(-30.467774,-64.966257)">
    <g
       id="devi-mic"
       inkscape:transform-center-x="-61.699939"
       inkscape:transform-center-y="-7.4041237"
       transform="rotate(-6.1884661,142.08971,135.53332)"
       inkscape:label="#g1018">
      <path
         style="display:inline;fill:#ffebeb;fill-opacity:1;stroke:#000000;stroke-width:0.26458332px;stroke-linecap:butt;stroke-linejoin:miter;stroke-opacity:1"
         d="m 168.09535,140.79368 -0.60747,4.33907 3.99194,1.56206 0.95459,-4.42584 z"
         id="path910"
         inkscape:connector-curvature="0"
         sodipodi:nodetypes="ccccc"
         transform="translate(-1.5620632,0.75561394)" />
      <path
         sodipodi:nodetypes="ccccc"
         inkscape:connector-curvature="0"
         transform="matrix(0.26458333,0,0,0.26458333,-3.1999999e-6,1.9299999e-6)"
         id="path1008"
         d="m 529.60115,487.88917 5.8789,37.43555 97.65276,34.24755 3.72071,-26.1836 z"
         style="display:inline;fill:#1e1e1e;fill-opacity:1;stroke:#000000;stroke-width:1.13385832;stroke-linecap:butt;stroke-linejoin:miter;stroke-miterlimit:4;stroke-dasharray:none;stroke-opacity:1" />
      <path
         sodipodi:nodetypes="ccccc"
         inkscape:connector-curvature="0"
         id="path955-3"
         d="m 169.38037,150.25968 0.23204,-9.8277 2.18376,-0.0935 0.99497,9.79537 z"
         style="display:inline;fill:#646464;fill-opacity:1;stroke:#000000;stroke-width:0.26458332px;stroke-linecap:butt;stroke-linejoin:miter;stroke-opacity:1" />
      <path
         sodipodi:nodetypes="ccccc"
         inkscape:connector-curvature="0"
         id="path957-6"
         d="m 173.75739,150.10091 -5.24943,0.18178 1.24463,3.60434 3.1744,-0.19155 z"
         style="display:inline;fill:#1e1e1e;fill-opacity:1;stroke:#000000;stroke-width:0.26458332px;stroke-linecap:butt;stroke-linejoin:miter;stroke-opacity:1" />
    </g>
  </g>
  <g
     inkscape:groupmode="layer"
     id="layer5"
     inkscape:label="Devi"
     style="display:inline"
     transform="translate(-30.467774,-64.966257)">
    <g
       id="g953"
       transform="translate(-1.5620632,0.75561393)"
       inkscape:transform-center-x="-27.796091"
       inkscape:transform-center-y="-21.027431">
      <path
         sodipodi:nodetypes="ccccc"
         inkscape:connector-curvature="0"
         id="path908"
         d="m 100.59213,143.04849 -3.48539,1.56387 0.653943,4.05 3.865907,-1.47273 z"
         style="fill:#ffebeb;fill-opacity:1;stroke:#000000;stroke-width:0.26458332px;stroke-linecap:butt;stroke-linejoin:miter;stroke-opacity:1" />
      <g
         style="stroke-width:0.30000001;stroke-miterlimit:4;stroke-dasharray:none"
         transform="rotate(-180,132.96745,91.776399)"
         id="g906">
        <path
           style="fill:#ffebeb;fill-opacity:1;stroke:#000000;stroke-width:0.30000001;stroke-linecap:butt;stroke-linejoin:miter;stroke-miterlimit:4;stroke-dasharray:none;stroke-opacity:1"
           d="m 127.995,36.863098 -0.37798,9.449404 6.89807,0.283483 -0.28348,-9.5439 z"
           id="path56"
           inkscape:connector-curvature="0"
           sodipodi:nodetypes="ccccc" />
        <path
           style="fill:#1e1e1e;fill-opacity:1;stroke:#000000;stroke-width:1.13385832;stroke-linecap:butt;stroke-linejoin:miter;stroke-miterlimit:4;stroke-dasharray:none;stroke-opacity:1"
           d="m 543.11033,494.22352 -4.43064,-24.47743 32.90234,-140.72265 -21.32812,11.68945 -15.26953,-10.03125 -26.16016,11.17383 -24.98047,-8.27539 -22.88086,11.48633 -26.32617,-8.93555 30.37109,137.06836 -3.57226,28.5332 -92.98438,40.73633 3.3418,23.56055 92.69531,-31.44336 18.00977,8.56054 c 0,0 20.18683,-20.39659 21.86914,-18.48437 1.68227,1.91226 19.76758,15.93359 19.76758,15.93359 l 24.79296,-9.20312"
           id="path54"
           transform="matrix(-0.26458333,0,0,-0.26458333,264.37284,184.30841)"
           inkscape:connector-curvature="0"
           sodipodi:nodetypes="cccccccccccccccccc" />
        <path
           style="fill:#ffebeb;fill-opacity:1;stroke:#000000;stroke-width:0.30000001;stroke-linecap:butt;stroke-linejoin:miter;stroke-miterlimit:4;stroke-dasharray:none;stroke-opacity:1"
           d="m 131.65489,41.807122 4.85074,-3.280827 1.94767,-7.200429 0.34857,-4.702838 -4.98839,-6.361547 -9.58155,2.575444 -1.0372,4.239427 0.3121,4.35729 2.91551,8.142564 z"
           id="path50"
           inkscape:connector-curvature="0"
           sodipodi:nodetypes="cccccccccc" />
        <path
           style="fill:none;stroke:#000000;stroke-width:0.30000001;stroke-linecap:butt;stroke-linejoin:miter;stroke-miterlimit:4;stroke-dasharray:none;stroke-opacity:1"
           d="m 129.18928,27.588743 -3.01359,4.368592"
           id="path870"
           inkscape:connector-curvature="0"
           sodipodi:nodetypes="cc" />
        <path
           style="fill:none;stroke:#000000;stroke-width:0.30000001;stroke-linecap:butt;stroke-linejoin:miter;stroke-miterlimit:4;stroke-dasharray:none;stroke-opacity:1"
           d="m 125.30335,27.590425 4.02326,4.146329"
           id="path872"
           inkscape:connector-curvature="0"
           sodipodi:nodetypes="cc" />
        <path
           style="fill:none;stroke:#000000;stroke-width:0.30000001;stroke-linecap:butt;stroke-linejoin:miter;stroke-miterlimit:4;stroke-dasharray:none;stroke-opacity:1"
           d="m 135.97997,27.640356 c -0.54823,0.828906 -3.29667,4.057656 -3.29667,4.057656"
           id="path874"
           inkscape:connector-curvature="0"
           sodipodi:nodetypes="cc" />
        <path
           style="fill:none;stroke:#000000;stroke-width:0.30000001;stroke-linecap:butt;stroke-linejoin:miter;stroke-miterlimit:4;stroke-dasharray:none;stroke-opacity:1"
           d="m 132.32105,27.666446 3.91591,3.868216"
           id="path876"
           inkscape:connector-curvature="0" />
        <path
           style="fill:none;stroke:#000000;stroke-width:0.30000001;stroke-linecap:butt;stroke-linejoin:miter;stroke-miterlimit:4;stroke-dasharray:none;stroke-opacity:1"
           d="m 126.22339,37.198239 c 0.15811,-0.412951 1.70499,-2.074035 1.70499,-2.074035 l 1.83378,2.694626 2.22417,-2.246168 2.06375,2.038531 1.69675,-2.571894"
           id="path878"
           inkscape:connector-curvature="0"
           sodipodi:nodetypes="cccccc" />
        <path
           style="fill:none;stroke:#000000;stroke-width:0.30000001;stroke-linecap:butt;stroke-linejoin:miter;stroke-miterlimit:4;stroke-dasharray:none;stroke-opacity:1"
           d="m 124.95031,28.628546 2.39677,-0.286143 2.93148,0.350316 -0.25499,2.460844 -1.86056,0.908725 -3.00872,-0.515061 z"
           id="path880"
           inkscape:connector-curvature="0"
           sodipodi:nodetypes="ccccccc" />
        <path
           style="fill:none;stroke:#000000;stroke-width:0.30000001;stroke-linecap:butt;stroke-linejoin:miter;stroke-miterlimit:4;stroke-dasharray:none;stroke-opacity:1"
           d="m 132.23643,31.163385 -0.45639,-2.315744 2.54721,-0.831852 2.49876,0.11446 0.25498,2.518075 -2.94897,1.130696 z"
           id="path882"
           inkscape:connector-curvature="0"
           sodipodi:nodetypes="ccccccc" />
        <path
           style="fill:none;stroke:#000000;stroke-width:0.30000001;stroke-linecap:butt;stroke-linejoin:miter;stroke-miterlimit:4;stroke-dasharray:none;stroke-opacity:1"
           d="m 130.12022,29.679691 0.90147,-0.404671 0.93754,0.283268"
           id="path884"
           inkscape:connector-curvature="0" />
        <path
           style="fill:none;stroke:#000000;stroke-width:0.30000001;stroke-linecap:butt;stroke-linejoin:miter;stroke-miterlimit:4;stroke-dasharray:none;stroke-opacity:1"
           d="m 124.99984,28.58708 -1.62267,-0.485605"
           id="path886"
           inkscape:connector-curvature="0" />
        <path
           style="fill:none;stroke:#000000;stroke-width:0.30000001;stroke-linecap:butt;stroke-linejoin:miter;stroke-miterlimit:4;stroke-dasharray:none;stroke-opacity:1"
           d="m 136.86327,28.141945 1.94719,-1.011676"
           id="path888"
           inkscape:connector-curvature="0" />
        <path
           style="fill:#310400;fill-opacity:1;stroke:#000000;stroke-width:0.30000001;stroke-linecap:butt;stroke-linejoin:miter;stroke-miterlimit:4;stroke-dasharray:none;stroke-opacity:1"
           d="m 124.30654,19.013929 -6.72285,5.409466 -3.59125,13.684672 0.3521,6.420999 4.08879,0.401777 c 0,0 4.63349,-0.868294 4.63349,-1.541271 0,-0.672986 1.041,-5.089311 1.041,-5.089311 0,0 -0.35622,-11.72264 -0.22005,-12.261029 0.13625,-0.538384 3.87068,-2.581254 3.87068,-2.581254 l 5.75704,-0.160351 4.43007,2.744329 0.52606,11.915612 0.14043,5.232059 5.11626,1.796675 4.24645,-1.923193 0.35446,-6.215512 -4.89097,-13.704172 -6.17693,-4.669167 z"
           id="path52"
           inkscape:connector-curvature="0"
           sodipodi:nodetypes="cccccsccccccccccccc" />
      </g>
    </g>
  </g>
</svg>
